<?xml version="1.0" standalone="no"?>
<!DOCTYPE svg PUBLIC "-//W3C//DTD SVG 20010904//EN"
 "http://www.w3.org/TR/2001/REC-SVG-20010904/DTD/svg10.dtd">
<svg version="1.0" xmlns="http://www.w3.org/2000/svg"
 width="576.000000pt" height="576.000000pt" viewBox="0 0 576.000000 576.000000"
 preserveAspectRatio="xMidYMid meet">
<metadata>
Created by potrace 1.14, written by Peter Selinger 2001-2017
</metadata>
<g transform="translate(0.000000,576.000000) scale(0.100000,-0.100000)"
fill="#000000" stroke="none">
<path d="M4400 5750 c-4 -3 -11 -16 -15 -30 -4 -14 -13 -38 -20 -55 -8 -16
-32 -84 -56 -150 -36 -105 -85 -239 -102 -285 -3 -8 -24 -69 -47 -135 -23 -66
-48 -136 -55 -155 -21 -53 -106 -290 -115 -319 -5 -14 -24 -69 -43 -121 -19
-52 -58 -160 -86 -240 -49 -137 -71 -184 -71 -149 0 8 -9 34 -20 57 -18 36
-39 85 -45 102 -3 7 -32 73 -65 145 -16 35 -41 93 -56 127 -14 35 -42 96 -60
136 -19 41 -34 75 -34 77 0 3 -11 28 -24 57 -23 51 -192 435 -223 508 -8 19
-24 54 -36 78 -23 48 -31 149 -14 197 14 41 51 71 104 84 42 11 50 22 38 53
-6 15 -271 16 -1330 4 -442 -5 -464 -7 -601 -41 -287 -72 -511 -242 -629 -474
-86 -172 -128 -421 -101 -606 26 -179 106 -344 223 -461 47 -47 175 -135 203
-139 3 0 14 -6 25 -12 23 -12 112 -39 165 -49 51 -9 233 -12 250 -3 9 4 29 9
45 12 39 5 57 12 134 49 158 76 260 209 287 374 39 236 -71 385 -276 375 -87
-4 -184 -85 -208 -174 -9 -33 -8 -39 6 -44 57 -18 84 -41 109 -91 65 -134 12
-342 -101 -396 -115 -54 -234 79 -273 304 -10 59 -10 382 0 440 57 321 196
566 412 725 213 157 430 181 549 60 66 -66 73 -104 62 -335 -4 -87 -13 -199
-21 -275 -2 -16 -6 -59 -9 -95 -4 -36 -9 -78 -12 -94 -3 -15 -7 -45 -9 -65 -2
-20 -6 -56 -10 -81 -4 -25 -9 -52 -10 -60 -2 -19 -19 -113 -20 -120 -1 -3 -5
-27 -10 -55 -10 -57 -12 -64 -15 -67 -1 -2 -3 -12 -5 -23 -31 -212 -198 -777
-290 -980 -12 -27 -33 -75 -46 -105 -58 -135 -205 -381 -301 -504 -54 -70
-218 -225 -278 -263 -36 -23 -69 -46 -75 -50 -5 -5 -41 -22 -80 -40 -65 -29
-87 -37 -170 -61 -42 -12 -197 -13 -242 0 -137 36 -252 148 -293 284 -32 107
-35 283 -6 358 42 110 152 188 262 188 143 -1 245 -109 256 -269 3 -43 18 -47
65 -17 71 47 137 172 148 281 20 204 -16 344 -115 443 -48 48 -87 71 -150 87
-60 16 -227 -8 -250 -36 -3 -3 -18 -13 -35 -21 -62 -31 -169 -152 -217 -246
-64 -125 -86 -195 -107 -345 -12 -83 -12 -297 0 -374 5 -33 11 -71 13 -85 2
-14 9 -45 16 -70 7 -25 14 -52 15 -60 16 -69 108 -250 168 -327 25 -33 70 -82
99 -108 57 -52 179 -135 198 -135 6 0 25 -8 43 -17 69 -36 206 -61 322 -58
147 4 211 19 329 77 181 88 335 234 453 428 47 78 140 263 170 340 12 30 33
85 47 122 14 36 26 73 26 80 0 8 5 19 12 26 7 7 9 12 5 12 -3 0 1 19 9 43 27
75 86 321 109 452 2 17 7 40 9 52 3 12 12 73 21 135 9 62 18 126 21 142 5 28
13 101 19 161 1 17 5 59 9 95 7 73 15 172 21 258 7 104 16 226 20 269 2 23 7
83 10 135 3 51 8 118 10 148 5 53 9 112 20 272 8 117 14 181 18 184 1 2 16
-27 31 -64 16 -37 34 -80 41 -97 7 -16 37 -86 65 -155 29 -69 58 -138 66 -155
17 -38 288 -679 321 -760 29 -69 110 -260 123 -290 10 -20 110 -258 217 -515
31 -74 60 -140 65 -146 9 -13 129 -19 126 -7 0 5 2 15 5 23 3 8 24 67 46 130
22 63 69 201 106 305 36 105 75 215 85 245 11 30 44 127 75 215 31 88 67 192
80 230 13 39 42 122 65 185 23 63 43 122 45 130 2 8 23 67 45 130 23 63 43
120 44 125 2 6 6 17 9 25 3 8 25 69 47 135 112 325 133 384 150 430 10 28 29
82 43 120 14 39 26 66 27 60 6 -59 12 -2094 6 -2125 -26 -139 -58 -204 -132
-269 -33 -29 -48 -50 -49 -69 l-2 -27 291 2 c160 1 429 3 599 4 l307 1 0 27
c0 20 -12 37 -46 65 -75 63 -117 143 -139 266 -8 43 -14 560 -17 1380 -2 560
0 631 15 687 25 93 53 142 112 198 50 48 59 63 56 92 -1 10 -109 12 -497 10
-273 -1 -499 -4 -504 -7z"/>
<path d="M3920 2733 c-8 -1 -186 -4 -395 -7 -421 -5 -441 -6 -572 -35 -453
-102 -780 -433 -830 -841 -11 -94 -7 -203 12 -277 3 -13 7 -31 9 -42 16 -73
62 -172 119 -261 47 -73 186 -201 275 -254 75 -45 230 -113 277 -122 11 -2 34
-7 50 -11 17 -4 35 -8 40 -9 6 0 26 -4 45 -7 19 -4 49 -9 65 -12 73 -14 304
-13 367 0 273 57 424 344 282 538 -50 69 -113 97 -212 94 -64 -2 -83 -6 -112
-27 -54 -38 -79 -66 -100 -113 -24 -51 -25 -77 -5 -77 38 0 89 -44 111 -95 63
-152 -9 -290 -158 -300 -107 -7 -198 43 -264 146 -99 153 -139 316 -137 571 1
75 4 155 7 177 3 23 9 60 12 84 50 367 269 682 549 789 47 18 80 23 155 22
107 0 158 -16 223 -73 40 -36 88 -124 93 -174 4 -31 16 -1515 14 -1567 -1 -14
-2 -29 -2 -35 3 -144 2 -373 -2 -415 -12 -149 -65 -260 -155 -322 -15 -11 -25
-28 -26 -46 l-2 -30 541 3 c298 2 567 4 599 4 56 1 57 1 57 30 0 21 -9 34 -35
52 -69 47 -120 135 -147 254 -5 22 -11 264 -14 537 l-6 497 189 -3 c199 -3
250 -12 291 -50 23 -21 50 -72 58 -111 6 -30 24 -128 24 -132 0 -2 10 -3 23
-3 l23 0 -3 303 c-1 166 -2 337 -3 379 0 73 -1 77 -21 73 -28 -6 -26 -2 -33
-60 -11 -81 -34 -148 -62 -178 -48 -52 -95 -61 -318 -62 l-168 0 -2 540 -1
540 230 0 230 0 47 -28 c26 -16 61 -43 78 -60 27 -28 103 -133 106 -147 0 -3
21 -48 46 -100 25 -52 49 -105 52 -117 6 -18 15 -23 42 -23 l36 0 -7 103 c-4
56 -8 134 -10 172 -2 39 -7 111 -11 160 -3 50 -7 106 -7 125 l-2 35 -770 0
c-424 0 -777 -1 -785 -2z"/>
<path d="M1057 1524 c-1 -1 -20 -4 -42 -7 -120 -14 -233 -93 -287 -197 -30
-59 -33 -73 -32 -155 0 -76 4 -99 26 -147 30 -63 48 -88 95 -132 l33 -29 -23
-13 c-12 -7 -29 -16 -37 -20 -25 -13 -80 -77 -102 -119 -46 -88 -56 -222 -24
-311 35 -100 118 -194 215 -243 103 -53 313 -83 411 -59 19 5 46 11 60 14 55
11 152 65 198 111 40 39 82 98 87 123 1 3 7 25 15 50 20 69 15 179 -10 235
-53 116 -186 173 -297 128 -18 -7 -35 -13 -39 -13 -13 0 41 42 79 62 110 56
264 17 270 -69 2 -29 6 -33 30 -33 74 0 90 108 28 183 -24 29 -74 48 -132 48
-70 1 -92 -4 -166 -42 -127 -64 -214 -191 -219 -317 -3 -94 24 -150 93 -186
49 -25 65 -22 53 10 -28 74 34 139 108 113 58 -20 78 -102 47 -190 -33 -94
-111 -156 -209 -166 -104 -11 -193 46 -245 157 -23 49 -26 67 -25 165 0 127
21 194 84 280 53 71 165 163 220 180 11 4 20 13 20 21 0 8 -1 14 -2 14 -2 0
-25 -7 -52 -15 -146 -44 -261 17 -316 168 -41 111 -28 268 27 329 28 32 78 41
117 23 109 -52 108 -304 -1 -346 -28 -11 -29 -29 -3 -62 54 -68 219 -62 365
15 47 24 125 96 125 115 0 7 4 13 8 13 4 0 16 22 25 48 32 87 13 169 -47 210
-43 29 -88 28 -123 -3 l-28 -25 31 -27 c61 -55 72 -108 41 -192 -11 -29 -29
-65 -41 -78 -25 -29 -78 -63 -97 -63 -10 0 -11 3 -3 8 7 4 20 31 29 60 33 100
4 217 -71 290 -34 33 -100 68 -145 76 -13 3 -24 5 -24 6 0 2 -95 6 -98 4z"/>
</g>
</svg>
